<svg width="32" height="32" viewBox="0 0 32 32" fill="none" xmlns="http://www.w3.org/2000/svg">
<path d="M11.8132 25.2135C10.8733 25.2135 10.109 24.4492 10.109 23.5093C10.109 23.2504 10.3189 23.0405 10.5779 23.0405C10.8368 23.0405 11.0467 23.2504 11.0467 23.5093C11.0467 23.932 11.3905 24.2758 11.8132 24.2758C12.2359 24.2758 12.5797 23.932 12.5797 23.5093V20.7931C12.5797 20.5341 12.7896 20.3242 13.0486 20.3242C13.3075 20.3242 13.5174 20.5341 13.5174 20.7931V23.5093C13.5181 24.4485 12.7531 25.2135 11.8132 25.2135Z" fill="#007BFA"/>
<path d="M16.1645 23.3707H14.8168C14.5578 23.3707 14.3479 23.1609 14.3479 22.9019C14.3479 22.6429 14.5578 22.4331 14.8168 22.4331H16.1645C16.3602 22.4331 16.5433 22.3653 16.6802 22.2418C16.8037 22.1302 16.8715 21.9865 16.8715 21.8385C16.8715 21.5155 16.5477 21.2424 16.1645 21.2424H14.8168C14.5578 21.2424 14.3479 21.0325 14.3479 20.7735C14.3479 20.5145 14.5578 20.3047 14.8168 20.3047H16.1645C17.0716 20.3047 17.8091 20.9931 17.8091 21.8385C17.8091 22.2545 17.632 22.6452 17.3098 22.9369C17.0002 23.2167 16.5931 23.3707 16.1645 23.3707Z" fill="#007BFA"/>
<path d="M14.8175 25.2141C14.5585 25.2141 14.3487 25.0042 14.3487 24.7452V20.7735C14.3487 20.5145 14.5585 20.3047 14.8175 20.3047C15.0765 20.3047 15.2863 20.5145 15.2863 20.7735V24.7452C15.2863 25.0042 15.0757 25.2141 14.8175 25.2141Z" fill="#007BFA"/>
<path d="M20.7181 25.2148C19.3645 25.2148 18.2631 24.1134 18.2631 22.7598C18.2631 21.4061 19.3645 20.3047 20.7181 20.3047C21.3031 20.3047 21.8701 20.5138 22.3144 20.8941C22.5109 21.0623 22.5339 21.3585 22.3658 21.5549C22.1976 21.7514 21.9014 21.7745 21.7049 21.6063C21.4311 21.3711 21.0806 21.2424 20.7189 21.2424C19.8824 21.2424 19.2015 21.9233 19.2015 22.7598C19.2015 23.5962 19.8824 24.2772 20.7189 24.2772C21.0806 24.2772 21.4311 24.1477 21.7049 23.9132C21.9014 23.7451 22.1976 23.7674 22.3658 23.9646C22.5339 24.1611 22.5116 24.4572 22.3144 24.6254C21.8701 25.0057 21.3031 25.2148 20.7181 25.2148Z" fill="#007BFA"/>
<path d="M22.0093 24.7357C21.7503 24.7357 21.5405 24.5259 21.5405 24.2669V22.9415C21.5405 22.6825 21.7503 22.4727 22.0093 22.4727C22.2683 22.4727 22.4781 22.6825 22.4781 22.9415V24.2669C22.4781 24.5259 22.2683 24.7357 22.0093 24.7357Z" fill="#007BFA"/>
<path d="M22.0093 23.4103H21.1126C20.8536 23.4103 20.6437 23.2005 20.6437 22.9415C20.6437 22.6825 20.8536 22.4727 21.1126 22.4727H22.0093C22.2683 22.4727 22.4781 22.6825 22.4781 22.9415C22.4781 23.2005 22.2683 23.4103 22.0093 23.4103Z" fill="#007BFA"/>
<path d="M23.9754 28.4563H8.02456C7.75815 28.4563 7.54308 28.2405 7.54308 27.9748V4.02911C7.54308 3.76269 7.75889 3.54688 8.02456 3.54688H19.5594C19.6874 3.54688 19.8095 3.59748 19.9003 3.68827L24.3163 8.10427C24.4063 8.19432 24.4577 8.31711 24.4577 8.44511V27.9741C24.4577 28.2405 24.2419 28.4563 23.9754 28.4563ZM8.50605 27.4926H23.494V8.6453L19.36 4.51134H8.50605V27.4926Z" fill="#282D3C"/>
<path d="M23.1874 8.76936H19.5892C19.3228 8.76936 19.1077 8.55355 19.1077 8.28713V4.16583C19.1077 3.89941 19.3235 3.68359 19.5892 3.68359C19.8549 3.68359 20.0707 3.89941 20.0707 4.16583V7.80564H23.1874C23.4538 7.80564 23.6688 8.02145 23.6688 8.28787C23.6688 8.55429 23.453 8.76936 23.1874 8.76936Z" fill="#282D3C"/>
</svg>
