<svg width="32" height="32" viewBox="0 0 32 32" fill="none" xmlns="http://www.w3.org/2000/svg">
<path d="M15.7031 25.1406H14.627C14.368 25.1406 14.1581 24.9307 14.1581 24.6718V20.6993C14.1581 20.4403 14.368 20.2305 14.627 20.2305H15.7031C17.0567 20.2305 18.1581 21.3319 18.1581 22.6855C18.1581 24.0392 17.0567 25.1406 15.7031 25.1406ZM15.0958 24.2029H15.7031C16.5395 24.2029 17.2205 23.522 17.2205 22.6855C17.2205 21.8491 16.5395 21.1681 15.7031 21.1681H15.0958V24.2029Z" fill="#007BFA"/>
<path d="M11.7864 23.2965H10.4394C10.1805 23.2965 9.97061 23.0867 9.97061 22.8277C9.97061 22.5687 10.1805 22.3588 10.4394 22.3588H11.7864C11.9821 22.3588 12.1652 22.2911 12.3021 22.1676C12.4257 22.056 12.4934 21.9123 12.4934 21.7642C12.4934 21.4413 12.1697 21.1681 11.7864 21.1681H10.4394C10.1805 21.1681 9.97061 20.9583 9.97061 20.6993C9.97061 20.4403 10.1805 20.2305 10.4394 20.2305H11.7864C12.6936 20.2305 13.4311 20.9188 13.4311 21.7642C13.4311 22.1802 13.254 22.5709 12.9317 22.8627C12.6214 23.1425 12.2151 23.2965 11.7864 23.2965Z" fill="#007BFA"/>
<path d="M10.4387 25.1406C10.1797 25.1406 9.96986 24.9307 9.96986 24.6718V20.6993C9.96986 20.4403 10.1797 20.2305 10.4387 20.2305C10.6977 20.2305 10.9075 20.4403 10.9075 20.6993V24.671C10.9075 24.9307 10.6977 25.1406 10.4387 25.1406Z" fill="#007BFA"/>
<path d="M19.4493 25.1399C19.1903 25.1399 18.9805 24.93 18.9805 24.671V20.6993C18.9805 20.4403 19.1903 20.2305 19.4493 20.2305H22.0971C22.3561 20.2305 22.566 20.4403 22.566 20.6993C22.566 20.9583 22.3561 21.1681 22.0971 21.1681H19.9181V24.671C19.9181 24.93 19.7083 25.1399 19.4493 25.1399Z" fill="#007BFA"/>
<path d="M21.0657 23.1525H19.4493C19.1903 23.1525 18.9805 22.9427 18.9805 22.6837C18.9805 22.4247 19.1903 22.2148 19.4493 22.2148H21.0657C21.3247 22.2148 21.5345 22.4247 21.5345 22.6837C21.5345 22.9427 21.3247 23.1525 21.0657 23.1525Z" fill="#007BFA"/>
<path d="M23.9754 28.4563H8.02456C7.75814 28.4563 7.54233 28.2405 7.54233 27.9748V4.02911C7.54233 3.76269 7.75814 3.54688 8.02456 3.54688H19.5594C19.6874 3.54688 19.8095 3.59748 19.9003 3.68827L24.3163 8.10427C24.4063 8.19432 24.4577 8.31711 24.4577 8.44511V27.9741C24.4577 28.2405 24.2419 28.4563 23.9754 28.4563ZM8.50605 27.4926H23.4939V8.6453L19.36 4.51134H8.50605V27.4926Z" fill="#282D3C"/>
<path d="M23.1873 8.76936H19.5892C19.3228 8.76936 19.107 8.55355 19.107 8.28713V4.16583C19.107 3.89941 19.3228 3.68359 19.5892 3.68359C19.8556 3.68359 20.0715 3.89941 20.0715 4.16583V7.80564H23.1881C23.4545 7.80564 23.6703 8.02145 23.6703 8.28787C23.6703 8.55429 23.453 8.76936 23.1873 8.76936Z" fill="#282D3C"/>
</svg>
