<svg width="55" height="48" viewBox="0 0 55 48" fill="none" xmlns="http://www.w3.org/2000/svg">
<g clip-path="url(#clip0_167_147)">
<path d="M54.1071 0.294607C54.6071 0.651749 54.8571 1.12496 54.8571 1.71425V39.4284C54.8571 39.7856 54.7589 40.107 54.5625 40.3927C54.3661 40.6784 54.1071 40.8838 53.7857 41.0088L36.6429 47.8659C36.2143 48.0623 35.7857 48.0623 35.3571 47.8659L18.8571 41.2766L2.35714 47.8659C2.17857 47.9552 1.96429 47.9998 1.71429 47.9998C1.375 47.9998 1.05357 47.9016 0.75 47.7052C0.25 47.3481 0 46.8749 0 46.2856V8.57137C0 8.21423 0.0982143 7.8928 0.294643 7.60709C0.491071 7.32138 0.75 7.11602 1.07143 6.99102L18.2143 0.133893C18.6429 -0.0625348 19.0714 -0.0625348 19.5 0.133893L36 6.72316L52.5 0.133893C53.0714 -0.098249 53.6071 -0.0446777 54.1071 0.294607ZM19.7143 3.91067V37.9284L35.1429 44.0891V10.0714L19.7143 3.91067ZM3.42857 9.72316V43.7409L18 37.9284V3.91067L3.42857 9.72316ZM51.4286 38.2767V4.25888L36.8571 10.0714V44.0891L51.4286 38.2767Z" fill="#007BFA"/>
</g>
<defs>
<clipPath id="clip0_167_147">
<rect width="54.8571" height="48" fill="white"/>
</clipPath>
</defs>
</svg>
