<svg width="53" height="47" viewBox="0 0 53 47" fill="none" xmlns="http://www.w3.org/2000/svg">
<path d="M16.4641 8.7837C17.5936 8.18398 18.8091 7.99269 19.9933 7.99269C21.5384 7.99756 23.036 8.52346 24.2409 9.48424C25.5865 10.5803 26.5 12.2605 26.5 14.4526C26.5 16.973 24.7068 18.3404 23.6969 19.1108L23.4757 19.2814C22.3722 20.1422 21.9453 20.6023 21.9453 21.5614C21.9453 22.0755 21.7397 22.5687 21.3736 22.9323C21.0075 23.2958 20.511 23.5001 19.9933 23.5001C19.4756 23.5001 18.9791 23.2958 18.613 22.9323C18.247 22.5687 18.0413 22.0755 18.0413 21.5614C18.0413 18.63 19.8918 17.1462 21.0656 16.2311C22.4008 15.1893 22.596 14.9567 22.596 14.4526C22.596 13.4264 22.2082 12.8447 21.7631 12.4854C21.2583 12.0906 20.6358 11.8733 19.9933 11.8676C19.2255 11.8676 18.6972 11.9943 18.3016 12.2037C17.9294 12.4001 17.5364 12.7465 17.1564 13.4445C17.0342 13.6685 16.8688 13.8665 16.6696 14.027C16.4703 14.1876 16.2412 14.3076 15.9953 14.3802C15.7494 14.4528 15.4915 14.4766 15.2363 14.4502C14.9812 14.4238 14.7337 14.3478 14.5082 14.2264C14.2826 14.1051 14.0833 13.9408 13.9216 13.7429C13.76 13.545 13.6391 13.3175 13.566 13.0733C13.4929 12.829 13.469 12.5729 13.4955 12.3194C13.5221 12.066 13.5987 11.8202 13.7208 11.5962C14.408 10.3399 15.3137 9.39118 16.4641 8.78112V8.7837ZM19.9933 31.2551C20.6836 31.2551 21.3456 30.9828 21.8337 30.498C22.3218 30.0132 22.596 29.3557 22.596 28.6701C22.596 27.9845 22.3218 27.327 21.8337 26.8422C21.3456 26.3575 20.6836 26.0851 19.9933 26.0851C19.303 26.0851 18.641 26.3575 18.1529 26.8422C17.6648 27.327 17.3906 27.9845 17.3906 28.6701C17.3906 29.3557 17.6648 30.0132 18.1529 30.498C18.641 30.9828 19.303 31.2551 19.9933 31.2551ZM19.9933 0.235108C16.71 0.234559 13.4797 1.05656 10.6011 2.62505C7.72258 4.19353 5.28888 6.45782 3.52523 9.20838C1.76158 11.9589 0.724965 15.1069 0.511306 18.361C0.297648 21.615 0.913852 24.8701 2.3029 27.8248L0.415954 35.1714C0.277455 35.711 0.281731 36.2771 0.42837 36.8146C0.575008 37.3521 0.85903 37.8428 1.25288 38.2392C1.64674 38.6356 2.13705 38.9242 2.67626 39.0769C3.21547 39.2296 3.78527 39.2413 4.33038 39.1109C6.28239 38.6456 9.28328 37.9296 11.9562 37.2963C14.6101 38.4849 17.4981 39.0689 20.4087 39.0054C23.3192 38.942 26.1786 38.2328 28.7775 36.9297C31.3763 35.6266 33.6488 33.7627 35.4285 31.4744C37.2082 29.1861 38.45 26.5315 39.063 23.7048C39.676 20.8781 39.6446 17.9511 38.9712 15.138C38.2978 12.325 36.9994 9.69715 35.1711 7.447C33.3428 5.19684 31.0309 3.38135 28.4047 2.13349C25.7785 0.885633 22.9046 0.237003 19.9933 0.235108ZM4.37723 19.6226C4.37826 16.25 5.48611 12.9695 7.53293 10.2784C9.57975 7.58733 12.454 5.6322 15.7201 4.7093C18.9862 3.7864 22.4662 3.94602 25.6327 5.16399C28.7993 6.38195 31.4798 8.59188 33.2682 11.4589C35.0566 14.3259 35.8553 17.6938 35.5433 21.0522C35.2314 24.4106 33.8257 27.5764 31.5394 30.0701C29.2531 32.5638 26.2107 34.2493 22.8732 34.8713C19.5358 35.4933 16.0851 35.0178 13.0442 33.517L12.4117 33.2042L11.722 33.3671L4.46572 35.0912C4.98626 33.0749 5.66816 30.4072 6.26157 28.0911L6.44376 27.3776L6.10541 26.7236C4.96554 24.5281 4.37288 22.0929 4.37723 19.6226ZM33.0067 46.7651C28.0829 46.7719 23.3396 44.9244 19.733 41.5951H19.9933C21.862 41.5951 23.6761 41.365 25.4095 40.9308C27.6582 42.1767 30.2505 42.8876 33.0093 42.8876C35.5079 42.8876 37.8659 42.306 39.9558 41.272L40.5883 40.9592L41.278 41.1221C43.6751 41.6908 46.3923 42.2724 48.4093 42.6989C47.8722 40.4099 47.3152 38.1255 46.7384 35.8461L46.5562 35.1326L46.8946 34.4786C48.0345 32.2831 48.6271 29.8479 48.6228 27.3776C48.6241 24.7845 47.9703 22.2325 46.7212 19.9554C45.4721 17.6783 43.6677 15.7489 41.4732 14.344C41.0143 12.4976 40.3143 10.7187 39.3911 9.05254C41.9748 9.94114 44.3419 11.3588 46.3391 13.2136C48.3362 15.0684 49.9189 17.3192 50.9847 19.8201C52.0505 22.321 52.5756 25.0163 52.5261 27.7316C52.4765 30.4468 51.8534 33.1215 50.6971 35.5824C51.3556 38.1881 52.0245 41.0109 52.4461 42.8282C52.5699 43.3549 52.5579 43.9041 52.4112 44.425C52.2646 44.9459 51.988 45.4217 51.6071 45.8083C51.2262 46.1948 50.7532 46.4797 50.232 46.6366C49.7109 46.7935 49.1583 46.8172 48.6254 46.7057C46.7332 46.3127 43.7584 45.682 41.0438 45.0513C38.5182 46.1845 35.778 46.7688 33.0067 46.7651Z" fill="#007BFA"/>
</svg>
