<svg width="40" height="40" viewBox="0 0 40 40" fill="none" xmlns="http://www.w3.org/2000/svg">
<path d="M30.3666 35C30.15 35 29.9333 34.9833 29.7333 34.95C16.9666 33.1833 6.81663 23.0333 5.04996 10.2667C4.86662 8.93333 5.26662 7.6 6.14996 6.58333C7.01663 5.58333 8.28329 5 9.61663 5H15.1166C16.55 5 17.75 6.01667 18 7.41667L18.65 11.0667C18.9666 12.8167 18.2166 14.6 16.7833 15.6333L16.2333 16.0167C18.25 19.0833 20.9 21.7167 24 23.7333L24.35 23.25C25.3666 21.8 27.1666 21.0667 28.9166 21.3667L32.5666 22.0167C33.9666 22.2667 34.9833 23.4833 34.9833 24.9V30.4C34.9833 31.7333 34.4 33 33.4 33.8833C32.5666 34.6 31.4833 35 30.3666 35ZM9.61663 7.5C8.99996 7.5 8.43329 7.75 8.01663 8.23333C7.61663 8.7 7.43329 9.31667 7.51663 9.93333C9.13329 21.5833 18.4166 30.8667 30.0666 32.4833C30.6833 32.5667 31.3 32.3833 31.7666 31.9833C32.2333 31.5667 32.5 31.0167 32.5 30.3833V24.8833C32.5 24.6667 32.35 24.5 32.15 24.4667L28.5 23.8167C27.6833 23.6833 26.8833 24.0167 26.4166 24.6833L25.3833 26.1333C25 26.6667 24.2833 26.8167 23.7166 26.4833C19.5 24 15.95 20.4833 13.4833 16.3167C13.15 15.75 13.3 15.0333 13.8333 14.6667L15.3166 13.6167C15.9833 13.15 16.3166 12.3333 16.1833 11.5333L15.5333 7.85C15.5 7.65 15.3166 7.5 15.1166 7.5H9.61663Z" fill="#282D3C"/>
</svg>
