<svg width="26" height="26" viewBox="0 0 26 26" fill="none" xmlns="http://www.w3.org/2000/svg">
<path d="M13.9224 13.0008L24.8014 2.11815C25.0574 1.86201 25.0574 1.44825 24.8014 1.19211C24.5453 0.935965 24.1317 0.935965 23.8757 1.19211L12.9967 12.0748L2.11777 1.19211C1.86172 0.935965 1.44809 0.935965 1.19204 1.19211C0.935987 1.44825 0.935987 1.86201 1.19204 2.11815L12.071 13.0008L1.19204 23.8835C0.935987 24.1396 0.935987 24.5534 1.19204 24.8095C1.32335 24.9409 1.48748 25 1.65819 25C1.82889 25 1.99302 24.9343 2.12433 24.8095L12.9967 13.9269L23.8757 24.8095C24.007 24.9409 24.1711 25 24.3418 25C24.5125 25 24.6767 24.9343 24.808 24.8095C25.064 24.5534 25.064 24.1396 24.808 23.8835L13.9224 13.0008Z" fill="#282D3C" stroke="#282D3C"/>
</svg>
