<svg width="14" height="14" viewBox="0 0 14 14" fill="none" xmlns="http://www.w3.org/2000/svg">
<path d="M13.75 0.8125V10.9375C13.75 11.0867 13.6907 11.2298 13.5852 11.3352C13.4798 11.4407 13.3367 11.5 13.1875 11.5C13.0383 11.5 12.8952 11.4407 12.7898 11.3352C12.6843 11.2298 12.625 11.0867 12.625 10.9375V1.375H3.0625C2.91332 1.375 2.77024 1.31574 2.66475 1.21025C2.55926 1.10476 2.5 0.961684 2.5 0.8125C2.5 0.663316 2.55926 0.520242 2.66475 0.414753C2.77024 0.309263 2.91332 0.25 3.0625 0.25H13.1875C13.3367 0.25 13.4798 0.309263 13.5852 0.414753C13.6907 0.520242 13.75 0.663316 13.75 0.8125ZM11.5 3.0625V13.1875C11.5 13.3367 11.4407 13.4798 11.3352 13.5852C11.2298 13.6907 11.0867 13.75 10.9375 13.75H0.8125C0.663316 13.75 0.520242 13.6907 0.414753 13.5852C0.309263 13.4798 0.25 13.3367 0.25 13.1875V3.0625C0.25 2.91332 0.309263 2.77024 0.414753 2.66475C0.520242 2.55926 0.663316 2.5 0.8125 2.5H10.9375C11.0867 2.5 11.2298 2.55926 11.3352 2.66475C11.4407 2.77024 11.5 2.91332 11.5 3.0625ZM10.375 3.625H1.375V12.625H10.375V3.625Z" fill="#9EA6B7"/>
</svg>
