<svg width="24" height="24" viewBox="0 0 24 24" fill="none" xmlns="http://www.w3.org/2000/svg">
<path d="M18.25 21H5.75C4.23 21 3 19.77 3 18.25V13.75C3 13.34 3.34 13 3.75 13C4.16 13 4.5 13.34 4.5 13.75V18.25C4.5 18.94 5.06 19.5 5.75 19.5H18.25C18.94 19.5 19.5 18.94 19.5 18.25V13.75C19.5 13.34 19.84 13 20.25 13C20.66 13 21 13.34 21 13.75V18.25C21 19.77 19.77 21 18.25 21Z" fill="#007BFA"/>
<path d="M16.78 12.53L12.53 16.78C12.46 16.85 12.38 16.9 12.29 16.94C12.2 16.98 12.1 17 12 17C11.9 17 11.8 16.98 11.71 16.94C11.62 16.9 11.54 16.85 11.47 16.78L7.22 12.53C6.93 12.24 6.93 11.76 7.22 11.47C7.51 11.18 7.99 11.18 8.28 11.47L11.25 14.44V4.75C11.25 4.34 11.59 4 12 4C12.41 4 12.75 4.34 12.75 4.75V14.44L15.72 11.47C16.01 11.18 16.49 11.18 16.78 11.47C17.07 11.76 17.07 12.24 16.78 12.53Z" fill="#007BFA"/>
</svg>
