<svg width="25" height="26" viewBox="0 0 25 26" fill="none" xmlns="http://www.w3.org/2000/svg">
<path d="M23.4375 6.75H20.2344C19.8438 4.95312 18.2812 3.625 16.4062 3.625C14.5312 3.625 12.9688 4.95312 12.5781 6.75H1.5625V8.3125H12.5781C12.9688 10.1094 14.5312 11.4375 16.4062 11.4375C18.2812 11.4375 19.8438 10.1094 20.2344 8.3125H23.4375V6.75ZM16.4062 9.875C15.0781 9.875 14.0625 8.85938 14.0625 7.53125C14.0625 6.20312 15.0781 5.1875 16.4062 5.1875C17.7344 5.1875 18.75 6.20312 18.75 7.53125C18.75 8.85938 17.7344 9.875 16.4062 9.875ZM1.5625 19.25H4.76562C5.15625 21.0469 6.71875 22.375 8.59375 22.375C10.4688 22.375 12.0312 21.0469 12.4219 19.25H23.4375V17.6875H12.4219C12.0312 15.8906 10.4688 14.5625 8.59375 14.5625C6.71875 14.5625 5.15625 15.8906 4.76562 17.6875H1.5625V19.25ZM8.59375 16.125C9.92188 16.125 10.9375 17.1406 10.9375 18.4688C10.9375 19.7969 9.92188 20.8125 8.59375 20.8125C7.26562 20.8125 6.25 19.7969 6.25 18.4688C6.25 17.1406 7.26562 16.125 8.59375 16.125Z" fill="#282D3C"/>
</svg>
