<svg width="40" height="35" viewBox="0 0 40 35" fill="none" xmlns="http://www.w3.org/2000/svg">
<g clip-path="url(#clip0_167_152)">
<path d="M34.5833 34.1666H5.41667C4.0331 34.1667 2.70195 33.6373 1.69628 32.6871C0.690611 31.7369 0.0866645 30.4379 0.00833355 29.0566L2.83312e-08 28.7499V4.58325C-0.000116703 3.63304 0.360492 2.71822 1.00895 2.02366C1.65741 1.32911 2.54535 0.906622 3.49333 0.841586L3.75 0.833252H29.5833C30.5335 0.833135 31.4484 1.19374 32.1429 1.8422C32.8375 2.49066 33.26 3.3786 33.325 4.32659L33.3333 4.58325V5.83325H36.25C37.2002 5.83314 38.115 6.19374 38.8096 6.8422C39.5041 7.49066 39.9266 8.3786 39.9917 9.32658L40 9.58325V28.7499C40.0001 30.1335 39.4707 31.4646 38.5205 32.4703C37.5704 33.476 36.2713 34.0799 34.89 34.1583L34.5833 34.1666H5.41667H34.5833ZM5.41667 31.6666H34.5833C35.3156 31.6665 36.021 31.391 36.5595 30.8948C37.098 30.3986 37.4302 29.7181 37.49 28.9883L37.5 28.7499V9.58325C37.5 9.28119 37.3906 8.98935 37.1921 8.7617C36.9935 8.53405 36.7193 8.386 36.42 8.34492L36.25 8.33325H33.3333V26.2499C33.3333 26.552 33.2239 26.8438 33.0254 27.0715C32.8268 27.2991 32.5526 27.4472 32.2533 27.4883L32.0833 27.4999C31.7813 27.4999 31.4894 27.3905 31.2618 27.192C31.0341 26.9934 30.8861 26.7192 30.845 26.4199L30.8333 26.2499V4.58325C30.8333 4.28119 30.7239 3.98935 30.5254 3.7617C30.3268 3.53405 30.0526 3.386 29.7533 3.34492L29.5833 3.33325H3.75C3.44794 3.33326 3.1561 3.44266 2.92845 3.6412C2.7008 3.83974 2.55275 4.114 2.51167 4.41325L2.5 4.58325V28.7499C2.50003 29.4819 2.77529 30.1871 3.27113 30.7256C3.76698 31.264 4.44717 31.5964 5.17667 31.6566L5.41667 31.6666H34.5833H5.41667ZM13.7433 15.8399C14.8933 15.8399 15.8267 16.7733 15.8267 17.9233V23.7499C15.8267 24.8999 14.8933 25.8333 13.7433 25.8333H7.91667C6.76667 25.8333 5.83333 24.8999 5.83333 23.7499V17.9233C5.83333 16.7733 6.76667 15.8399 7.91667 15.8399H13.7433ZM20.4167 23.3333H26.2433C26.56 23.3333 26.8649 23.4537 27.0963 23.6699C27.3277 23.8861 27.4685 24.1821 27.49 24.4981C27.5116 24.814 27.4125 25.1264 27.2126 25.3721C27.0128 25.6178 26.7271 25.7784 26.4133 25.8216L26.2433 25.8333H20.4167C20.1 25.8332 19.7951 25.7128 19.5637 25.4966C19.3323 25.2804 19.1915 24.9844 19.17 24.6685C19.1484 24.3525 19.2475 24.0401 19.4474 23.7944C19.6472 23.5487 19.9329 23.3881 20.2467 23.3449L20.4167 23.3333H26.2433H20.4167ZM13.3283 18.3399H8.33333V23.3333H13.3283V18.3399ZM20.4167 15.8399H26.2433C26.56 15.84 26.8649 15.9603 27.0963 16.1765C27.3277 16.3928 27.4685 16.6887 27.49 17.0047C27.5116 17.3207 27.4125 17.6331 27.2126 17.8787C27.0128 18.1244 26.7271 18.2851 26.4133 18.3283L26.2433 18.3399H20.4167C20.0977 18.3432 19.7896 18.2243 19.5554 18.0078C19.3211 17.7913 19.1786 17.4934 19.1569 17.1751C19.1351 16.8569 19.2359 16.5424 19.4385 16.296C19.6411 16.0496 19.9302 15.8901 20.2467 15.8499L20.4167 15.8399H26.2433H20.4167ZM7.07667 8.32825H26.2433C26.56 8.32835 26.8649 8.44866 27.0963 8.66487C27.3277 8.88109 27.4685 9.17708 27.49 9.49305C27.5116 9.80902 27.4125 10.1214 27.2126 10.3671C27.0128 10.6128 26.7271 10.7734 26.4133 10.8166L26.2433 10.8283H7.07667C6.7601 10.8277 6.45553 10.7071 6.22443 10.4908C5.99333 10.2744 5.85292 9.97846 5.83156 9.66262C5.81019 9.34678 5.90945 9.03459 6.10931 8.78909C6.30916 8.54359 6.59472 8.38306 6.90833 8.33992L7.07667 8.32825H26.2433H7.07667Z" fill="#007BFA"/>
</g>
<defs>
<clipPath id="clip0_167_152">
<rect width="40" height="33.3333" fill="white" transform="translate(0 0.833252)"/>
</clipPath>
</defs>
</svg>
