<svg width="42" height="48" viewBox="0 0 42 48" fill="none" xmlns="http://www.w3.org/2000/svg">
<path d="M20.5714 0.75L0.642853 7.39286V27.3214C0.642853 38.3288 9.564 47.25 20.5714 47.25C31.5788 47.25 40.5 38.3288 40.5 27.3214V7.39286L20.5714 0.75ZM36.7634 27.3214C36.7634 36.2633 29.5133 43.5134 20.5714 43.5134C11.6295 43.5134 4.37946 36.2633 4.37946 27.3214V10.1953L20.5714 4.48661L36.7634 10.1953V27.3214Z" fill="#007BFA"/>
<path d="M13.6379 22.085C13.4648 21.911 13.259 21.773 13.0323 21.6788C12.8056 21.5846 12.5626 21.5361 12.3172 21.5361C12.0717 21.5361 11.8287 21.5846 11.602 21.6788C11.3754 21.773 11.1695 21.911 10.9964 22.085C10.8224 22.2581 10.6844 22.4639 10.5902 22.6906C10.496 22.9173 10.4475 23.1603 10.4475 23.4057C10.4475 23.6512 10.496 23.8942 10.5902 24.1209C10.6844 24.3475 10.8224 24.5534 10.9964 24.7265L17.7119 31.442L17.8209 31.551C17.9847 31.7151 18.1792 31.8453 18.3934 31.9342C18.6076 32.023 18.8371 32.0687 19.069 32.0687C19.3009 32.0687 19.5304 32.023 19.7446 31.9342C19.9588 31.8453 20.1533 31.7151 20.3171 31.551L31.9162 19.952C32.0803 19.7882 32.2105 19.5936 32.2993 19.3795C32.3881 19.1653 32.4339 18.9357 32.4339 18.7038C32.4339 18.472 32.3881 18.2424 32.2993 18.0282C32.2105 17.8141 32.0803 17.6195 31.9162 17.4557L31.7709 17.3104C31.6071 17.1463 31.4125 17.0161 31.1984 16.9273C30.9842 16.8384 30.7546 16.7927 30.5227 16.7927C30.2909 16.7927 30.0613 16.8384 29.8471 16.9273C29.633 17.0161 29.4384 17.1463 29.2746 17.3104L19.0664 27.5134L13.6379 22.085Z" fill="#007BFA"/>
</svg>
