<svg width="34" height="45" viewBox="0 0 34 45" fill="none" xmlns="http://www.w3.org/2000/svg">
<path d="M17 42.5C25.235 42.5 32 35.974 32 27.598C32 25.542 31.895 23.338 30.755 19.912C29.615 16.486 29.386 16.044 28.181 13.928C27.666 18.245 24.911 20.045 24.211 20.583C24.211 20.023 22.545 13.836 20.018 10.133C17.537 6.5 14.163 4.117 12.185 2.5C12.185 5.57 11.322 10.134 10.085 12.46C8.849 14.785 8.617 14.87 7.072 16.6C5.528 18.33 4.819 18.865 3.527 20.965C2.236 23.065 2 25.862 2 27.918C2 36.294 8.765 42.5 17 42.5Z" stroke="#007BFA" stroke-width="4" stroke-linejoin="round"/>
</svg>
